<svg xmlns="http://www.w3.org/2000/svg" xmlns:xlink="http://www.w3.org/1999/xlink" xml:space="preserve" version="1.1" style="shape-rendering:geometricPrecision;text-rendering:geometricPrecision;image-rendering:optimizeQuality;" viewBox="0 0 254 316.25" x="0px" y="0px" fill-rule="evenodd" clip-rule="evenodd"><defs><style type="text/css">
   
    .fil0 {fill:black;fill-rule:nonzero}
   
  </style></defs><g><path class="fil0" d="M251 43l-85 84 85 84c4,4 4,11 0,15l-24 24c-4,4 -11,4 -15,0l-85 -84 -85 84c-4,4 -11,4 -15,0l-24 -24c-4,-4 -4,-11 0,-15l85 -84 -85 -84c-4,-5 -4,-12 0,-16l24 -24c4,-4 11,-4 15,0l85 84 85 -84c4,-4 11,-4 15,0l24 24c4,4 4,11 0,16z"/></g><text x="0" y="268" fill="#000000" font-size="5px" font-weight="bold" font-family="'Helvetica Neue', Helvetica, Arial-Unicode, Arial, Sans-serif">Created by Ainsley Agatha</text><text x="0" y="273" fill="#000000" font-size="5px" font-weight="bold" font-family="'Helvetica Neue', Helvetica, Arial-Unicode, Arial, Sans-serif">from the Noun Project</text></svg>