<svg xmlns="http://www.w3.org/2000/svg" viewBox="0 0 64 80" x="0px" y="0px"><g data-name="Layer 75"><path d="M58.45,55.52,56,22.61A6.06,6.06,0,0,0,50,17H46.83c-2.54-19.92-27.2-19.9-29.74,0H14a6.06,6.06,0,0,0-6,5.6L5.55,55.51a6.08,6.08,0,0,0,6,6.49H52.42A6.09,6.09,0,0,0,58.45,55.52ZM32,6c5.48,0,10,4.79,10.84,11H21.12C21.94,10.79,26.48,6,32,6Z"/></g><text x="0" y="79" fill="#000000" font-size="5px" font-weight="bold" font-family="'Helvetica Neue', Helvetica, Arial-Unicode, Arial, Sans-serif">Created by Colourcreatype</text><text x="0" y="84" fill="#000000" font-size="5px" font-weight="bold" font-family="'Helvetica Neue', Helvetica, Arial-Unicode, Arial, Sans-serif">from the Noun Project</text></svg>